# Blender 5.2.0 LTS
# www.blender.org
mtllib BenchPress.mtl
o BenchPress_Pad
v -1.700000 1.100000 0.450000
v -1.700000 1.300000 0.450000
v -1.700000 1.100000 -0.450000
v -1.700000 1.300000 -0.450000
v 1.700000 1.100000 0.450000
v 1.700000 1.300000 0.450000
v 1.700000 1.100000 -0.450000
v 1.700000 1.300000 -0.450000
vn -1.0000 -0.0000 -0.0000
vn -0.0000 -0.0000 -1.0000
vn 1.0000 -0.0000 -0.0000
vn -0.0000 -0.0000 1.0000
vn -0.0000 -1.0000 -0.0000
vn -0.0000 1.0000 -0.0000
vt 0.625000 0.000000
vt 0.375000 0.250000
vt 0.375000 0.000000
vt 0.625000 0.250000
vt 0.375000 0.500000
vt 0.625000 0.500000
vt 0.375000 0.750000
vt 0.625000 0.750000
vt 0.375000 1.000000
vt 0.125000 0.750000
vt 0.125000 0.500000
vt 0.875000 0.500000
vt 0.625000 1.000000
vt 0.875000 0.750000
s 0
usemtl BP_Pad
f 2/1/1 3/2/1 1/3/1
f 4/4/2 7/5/2 3/2/2
f 8/6/3 5/7/3 7/5/3
f 6/8/4 1/9/4 5/7/4
f 7/5/5 1/10/5 3/11/5
f 4/12/6 6/8/6 8/6/6
f 2/1/1 4/4/1 3/2/1
f 4/4/2 8/6/2 7/5/2
f 8/6/3 6/8/3 5/7/3
f 6/8/4 2/13/4 1/9/4
f 7/5/5 5/7/5 1/10/5
f 4/12/6 2/14/6 6/8/6
o BenchPress_Frame
v -1.500000 0.940000 0.110000
v -1.500000 1.100000 0.110000
v -1.500000 0.940000 -0.110000
v -1.500000 1.100000 -0.110000
v 1.500000 0.940000 0.110000
v 1.500000 1.100000 0.110000
v 1.500000 0.940000 -0.110000
v 1.500000 1.100000 -0.110000
v -1.450000 0.000000 0.100000
v -1.450000 0.940000 0.100000
v -1.450000 0.000000 -0.100000
v -1.450000 0.940000 -0.100000
v -1.250000 0.000000 0.100000
v -1.250000 0.940000 0.100000
v -1.250000 0.000000 -0.100000
v -1.250000 0.940000 -0.100000
v -1.430000 0.000000 0.600000
v -1.430000 0.100000 0.600000
v -1.430000 0.000000 -0.600000
v -1.430000 0.100000 -0.600000
v -1.270000 0.000000 0.600000
v -1.270000 0.100000 0.600000
v -1.270000 0.000000 -0.600000
v -1.270000 0.100000 -0.600000
v 1.150000 0.000000 0.100000
v 1.150000 0.940000 0.100000
v 1.150000 0.000000 -0.100000
v 1.150000 0.940000 -0.100000
v 1.350000 0.000000 0.100000
v 1.350000 0.940000 0.100000
v 1.350000 0.000000 -0.100000
v 1.350000 0.940000 -0.100000
v 1.000000 0.000000 0.300000
v 1.000000 0.100000 0.300000
v 1.000000 0.000000 -0.300000
v 1.000000 0.100000 -0.300000
v 1.500000 0.000000 0.300000
v 1.500000 0.100000 0.300000
v 1.500000 0.000000 -0.300000
v 1.500000 0.100000 -0.300000
v 1.650000 0.000000 1.450000
v 1.650000 3.900000 1.450000
v 1.650000 0.000000 1.250000
v 1.650000 3.900000 1.250000
v 1.850000 0.000000 1.450000
v 1.850000 3.900000 1.450000
v 1.850000 0.000000 1.250000
v 1.850000 3.900000 1.250000
v 1.150000 0.000000 1.450000
v 1.150000 0.100000 1.450000
v 1.150000 0.000000 1.250000
v 1.150000 0.100000 1.250000
v 2.350000 0.000000 1.450000
v 2.350000 0.100000 1.450000
v 2.350000 0.000000 1.250000
v 2.350000 0.100000 1.250000
v 1.300000 3.375000 1.470000
v 1.300000 3.455000 1.470000
v 1.300000 3.375000 1.230000
v 1.300000 3.455000 1.230000
v 1.650000 3.375000 1.470000
v 1.650000 3.455000 1.470000
v 1.650000 3.375000 1.230000
v 1.650000 3.455000 1.230000
v 1.300000 3.415000 1.470000
v 1.300000 3.715000 1.470000
v 1.300000 3.415000 1.230000
v 1.300000 3.715000 1.230000
v 1.380000 3.415000 1.470000
v 1.380000 3.715000 1.470000
v 1.380000 3.415000 1.230000
v 1.380000 3.715000 1.230000
v 1.650000 0.000000 -1.250000
v 1.650000 3.900000 -1.250000
v 1.650000 0.000000 -1.450000
v 1.650000 3.900000 -1.450000
v 1.850000 0.000000 -1.250000
v 1.850000 3.900000 -1.250000
v 1.850000 0.000000 -1.450000
v 1.850000 3.900000 -1.450000
v 1.150000 0.000000 -1.250000
v 1.150000 0.100000 -1.250000
v 1.150000 0.000000 -1.450000
v 1.150000 0.100000 -1.450000
v 2.350000 0.000000 -1.250000
v 2.350000 0.100000 -1.250000
v 2.350000 0.000000 -1.450000
v 2.350000 0.100000 -1.450000
v 1.300000 3.375000 -1.230000
v 1.300000 3.455000 -1.230000
v 1.300000 3.375000 -1.470000
v 1.300000 3.455000 -1.470000
v 1.650000 3.375000 -1.230000
v 1.650000 3.455000 -1.230000
v 1.650000 3.375000 -1.470000
v 1.650000 3.455000 -1.470000
v 1.300000 3.415000 -1.230000
v 1.300000 3.715000 -1.230000
v 1.300000 3.415000 -1.470000
v 1.300000 3.715000 -1.470000
v 1.380000 3.415000 -1.230000
v 1.380000 3.715000 -1.230000
v 1.380000 3.415000 -1.470000
v 1.380000 3.715000 -1.470000
v 1.670000 0.050000 1.250000
v 1.670000 0.190000 1.250000
v 1.670000 0.050000 -1.250000
v 1.670000 0.190000 -1.250000
v 1.830000 0.050000 1.250000
v 1.830000 0.190000 1.250000
v 1.830000 0.050000 -1.250000
v 1.830000 0.190000 -1.250000
vn -1.0000 -0.0000 -0.0000
vn -0.0000 -0.0000 -1.0000
vn 1.0000 -0.0000 -0.0000
vn -0.0000 -0.0000 1.0000
vn -0.0000 -1.0000 -0.0000
vn -0.0000 1.0000 -0.0000
vt 0.625000 0.000000
vt 0.375000 0.250000
vt 0.375000 0.000000
vt 0.625000 0.250000
vt 0.375000 0.500000
vt 0.625000 0.500000
vt 0.375000 0.750000
vt 0.625000 0.750000
vt 0.375000 1.000000
vt 0.125000 0.750000
vt 0.125000 0.500000
vt 0.875000 0.500000
vt 0.625000 1.000000
vt 0.875000 0.750000
s 0
usemtl BP_Frame
f 10/15/7 11/16/7 9/17/7
f 12/18/8 15/19/8 11/16/8
f 16/20/9 13/21/9 15/19/9
f 14/22/10 9/23/10 13/21/10
f 15/19/11 9/24/11 11/25/11
f 18/15/7 19/16/7 17/17/7
f 20/18/8 23/19/8 19/16/8
f 24/20/9 21/21/9 23/19/9
f 22/22/10 17/23/10 21/21/10
f 23/19/11 17/24/11 19/25/11
f 26/15/7 27/16/7 25/17/7
f 28/18/8 31/19/8 27/16/8
f 32/20/9 29/21/9 31/19/9
f 30/22/10 25/23/10 29/21/10
f 31/19/11 25/24/11 27/25/11
f 28/26/12 30/22/12 32/20/12
f 34/15/7 35/16/7 33/17/7
f 36/18/8 39/19/8 35/16/8
f 40/20/9 37/21/9 39/19/9
f 38/22/10 33/23/10 37/21/10
f 39/19/11 33/24/11 35/25/11
f 42/15/7 43/16/7 41/17/7
f 44/18/8 47/19/8 43/16/8
f 48/20/9 45/21/9 47/19/9
f 46/22/10 41/23/10 45/21/10
f 47/19/11 41/24/11 43/25/11
f 44/26/12 46/22/12 48/20/12
f 50/15/7 51/16/7 49/17/7
f 52/18/8 55/19/8 51/16/8
f 56/20/9 53/21/9 55/19/9
f 54/22/10 49/23/10 53/21/10
f 55/19/11 49/24/11 51/25/11
f 52/26/12 54/22/12 56/20/12
f 58/15/7 59/16/7 57/17/7
f 60/18/8 63/19/8 59/16/8
f 64/20/9 61/21/9 63/19/9
f 62/22/10 57/23/10 61/21/10
f 63/19/11 57/24/11 59/25/11
f 60/26/12 62/22/12 64/20/12
f 66/15/7 67/16/7 65/17/7
f 68/18/8 71/19/8 67/16/8
f 72/20/9 69/21/9 71/19/9
f 70/22/10 65/23/10 69/21/10
f 71/19/11 65/24/11 67/25/11
f 68/26/12 70/22/12 72/20/12
f 74/15/7 75/16/7 73/17/7
f 76/18/8 79/19/8 75/16/8
f 80/20/9 77/21/9 79/19/9
f 78/22/10 73/23/10 77/21/10
f 79/19/11 73/24/11 75/25/11
f 76/26/12 78/22/12 80/20/12
f 82/15/7 83/16/7 81/17/7
f 84/18/8 87/19/8 83/16/8
f 88/20/9 85/21/9 87/19/9
f 86/22/10 81/23/10 85/21/10
f 87/19/11 81/24/11 83/25/11
f 84/26/12 86/22/12 88/20/12
f 90/15/7 91/16/7 89/17/7
f 92/18/8 95/19/8 91/16/8
f 96/20/9 93/21/9 95/19/9
f 94/22/10 89/23/10 93/21/10
f 95/19/11 89/24/11 91/25/11
f 92/26/12 94/22/12 96/20/12
f 98/15/7 99/16/7 97/17/7
f 100/18/8 103/19/8 99/16/8
f 104/20/9 101/21/9 103/19/9
f 102/22/10 97/23/10 101/21/10
f 103/19/11 97/24/11 99/25/11
f 100/26/12 102/22/12 104/20/12
f 106/15/7 107/16/7 105/17/7
f 108/18/8 111/19/8 107/16/8
f 112/20/9 109/21/9 111/19/9
f 110/22/10 105/23/10 109/21/10
f 111/19/11 105/24/11 107/25/11
f 108/26/12 110/22/12 112/20/12
f 114/15/7 115/16/7 113/17/7
f 120/20/9 117/21/9 119/19/9
f 119/19/11 113/24/11 115/25/11
f 116/26/12 118/22/12 120/20/12
f 10/15/7 12/18/7 11/16/7
f 12/18/8 16/20/8 15/19/8
f 16/20/9 14/22/9 13/21/9
f 14/22/10 10/27/10 9/23/10
f 15/19/11 13/21/11 9/24/11
f 18/15/7 20/18/7 19/16/7
f 20/18/8 24/20/8 23/19/8
f 24/20/9 22/22/9 21/21/9
f 22/22/10 18/27/10 17/23/10
f 23/19/11 21/21/11 17/24/11
f 26/15/7 28/18/7 27/16/7
f 28/18/8 32/20/8 31/19/8
f 32/20/9 30/22/9 29/21/9
f 30/22/10 26/27/10 25/23/10
f 31/19/11 29/21/11 25/24/11
f 28/26/12 26/28/12 30/22/12
f 34/15/7 36/18/7 35/16/7
f 36/18/8 40/20/8 39/19/8
f 40/20/9 38/22/9 37/21/9
f 38/22/10 34/27/10 33/23/10
f 39/19/11 37/21/11 33/24/11
f 42/15/7 44/18/7 43/16/7
f 44/18/8 48/20/8 47/19/8
f 48/20/9 46/22/9 45/21/9
f 46/22/10 42/27/10 41/23/10
f 47/19/11 45/21/11 41/24/11
f 44/26/12 42/28/12 46/22/12
f 50/15/7 52/18/7 51/16/7
f 52/18/8 56/20/8 55/19/8
f 56/20/9 54/22/9 53/21/9
f 54/22/10 50/27/10 49/23/10
f 55/19/11 53/21/11 49/24/11
f 52/26/12 50/28/12 54/22/12
f 58/15/7 60/18/7 59/16/7
f 60/18/8 64/20/8 63/19/8
f 64/20/9 62/22/9 61/21/9
f 62/22/10 58/27/10 57/23/10
f 63/19/11 61/21/11 57/24/11
f 60/26/12 58/28/12 62/22/12
f 66/15/7 68/18/7 67/16/7
f 68/18/8 72/20/8 71/19/8
f 72/20/9 70/22/9 69/21/9
f 70/22/10 66/27/10 65/23/10
f 71/19/11 69/21/11 65/24/11
f 68/26/12 66/28/12 70/22/12
f 74/15/7 76/18/7 75/16/7
f 76/18/8 80/20/8 79/19/8
f 80/20/9 78/22/9 77/21/9
f 78/22/10 74/27/10 73/23/10
f 79/19/11 77/21/11 73/24/11
f 76/26/12 74/28/12 78/22/12
f 82/15/7 84/18/7 83/16/7
f 84/18/8 88/20/8 87/19/8
f 88/20/9 86/22/9 85/21/9
f 86/22/10 82/27/10 81/23/10
f 87/19/11 85/21/11 81/24/11
f 84/26/12 82/28/12 86/22/12
f 90/15/7 92/18/7 91/16/7
f 92/18/8 96/20/8 95/19/8
f 96/20/9 94/22/9 93/21/9
f 94/22/10 90/27/10 89/23/10
f 95/19/11 93/21/11 89/24/11
f 92/26/12 90/28/12 94/22/12
f 98/15/7 100/18/7 99/16/7
f 100/18/8 104/20/8 103/19/8
f 104/20/9 102/22/9 101/21/9
f 102/22/10 98/27/10 97/23/10
f 103/19/11 101/21/11 97/24/11
f 100/26/12 98/28/12 102/22/12
f 106/15/7 108/18/7 107/16/7
f 108/18/8 112/20/8 111/19/8
f 112/20/9 110/22/9 109/21/9
f 110/22/10 106/27/10 105/23/10
f 111/19/11 109/21/11 105/24/11
f 108/26/12 106/28/12 110/22/12
f 114/15/7 116/18/7 115/16/7
f 120/20/9 118/22/9 117/21/9
f 119/19/11 117/21/11 113/24/11
f 116/26/12 114/28/12 118/22/12
o BenchPress_Bar
v 1.500000 3.545000 -3.100000
v 1.500000 3.545000 3.100000
v 1.538971 3.522500 -3.100000
v 1.538971 3.522500 3.100000
v 1.538971 3.477500 -3.100000
v 1.538971 3.477500 3.100000
v 1.500000 3.455000 -3.100000
v 1.500000 3.455000 3.100000
v 1.461029 3.477500 -3.100000
v 1.461029 3.477500 3.100000
v 1.461029 3.522500 -3.100000
v 1.461029 3.522500 3.100000
v 1.500000 3.590000 1.700000
v 1.500000 3.590000 1.820000
v 1.577942 3.545000 1.700000
v 1.577942 3.545000 1.820000
v 1.577942 3.455000 1.700000
v 1.577942 3.455000 1.820000
v 1.500000 3.410000 1.700000
v 1.500000 3.410000 1.820000
v 1.422058 3.455000 1.700000
v 1.422058 3.455000 1.820000
v 1.422058 3.545000 1.700000
v 1.422058 3.545000 1.820000
v 1.500000 3.590000 -1.820000
v 1.500000 3.590000 -1.700000
v 1.577942 3.545000 -1.820000
v 1.577942 3.545000 -1.700000
v 1.577942 3.455000 -1.820000
v 1.577942 3.455000 -1.700000
v 1.500000 3.410000 -1.820000
v 1.500000 3.410000 -1.700000
v 1.422058 3.455000 -1.820000
v 1.422058 3.455000 -1.700000
v 1.422058 3.545000 -1.820000
v 1.422058 3.545000 -1.700000
vn 0.5000 0.8660 -0.0000
vn 1.0000 -0.0000 -0.0000
vn 0.5000 -0.8660 -0.0000
vn -0.5000 -0.8660 -0.0000
vn -0.0000 -0.0000 1.0000
vn -1.0000 -0.0000 -0.0000
vn -0.5000 0.8660 -0.0000
vn -0.0000 -0.0000 -1.0000
vt 1.000000 1.000000
vt 0.833333 0.500000
vt 1.000000 0.500000
vt 0.833333 1.000000
vt 0.666667 0.500000
vt 0.666667 1.000000
vt 0.500000 0.500000
vt 0.500000 1.000000
vt 0.333333 0.500000
vt 0.250000 0.490000
vt 0.042154 0.130000
vt 0.457846 0.130000
vt 0.333333 1.000000
vt 0.166667 0.500000
vt 0.166667 1.000000
vt -0.000000 0.500000
vt 0.957846 0.370000
vt 0.750000 0.010000
vt 0.542154 0.370000
vt -0.000000 1.000000
vt 0.457846 0.370000
vt 0.042154 0.370000
vt 0.250000 0.010000
vt 0.750000 0.490000
vt 0.957846 0.130000
vt 0.542154 0.130000
s 0
usemtl BP_Bar
f 122/29/13 123/30/13 121/31/13
f 124/32/14 125/33/14 123/30/14
f 126/34/15 127/35/15 125/33/15
f 128/36/16 129/37/16 127/35/16
f 122/38/17 130/39/17 126/40/17
f 130/41/18 131/42/18 129/37/18
f 132/43/19 121/44/19 131/42/19
f 123/45/20 127/46/20 131/47/20
f 134/29/13 135/30/13 133/31/13
f 136/32/14 137/33/14 135/30/14
f 138/34/15 139/35/15 137/33/15
f 139/35/16 142/41/16 141/37/16
f 134/38/17 142/39/17 138/40/17
f 141/37/18 144/43/18 143/42/18
f 143/42/19 134/48/19 133/44/19
f 135/45/20 139/46/20 143/47/20
f 146/29/13 147/30/13 145/31/13
f 148/32/14 149/33/14 147/30/14
f 150/34/15 151/35/15 149/33/15
f 151/35/16 154/41/16 153/37/16
f 146/38/17 154/39/17 150/40/17
f 153/37/18 156/43/18 155/42/18
f 155/42/19 146/48/19 145/44/19
f 147/45/20 151/46/20 155/47/20
f 122/29/13 124/32/13 123/30/13
f 124/32/14 126/34/14 125/33/14
f 126/34/15 128/36/15 127/35/15
f 128/36/16 130/41/16 129/37/16
f 126/40/17 124/49/17 122/38/17
f 122/38/17 132/50/17 130/39/17
f 130/39/17 128/51/17 126/40/17
f 130/41/18 132/43/18 131/42/18
f 132/43/19 122/48/19 121/44/19
f 131/47/20 121/52/20 123/45/20
f 123/45/20 125/53/20 127/46/20
f 127/46/20 129/54/20 131/47/20
f 134/29/13 136/32/13 135/30/13
f 136/32/14 138/34/14 137/33/14
f 138/34/15 140/36/15 139/35/15
f 139/35/16 140/36/16 142/41/16
f 138/40/17 136/49/17 134/38/17
f 134/38/17 144/50/17 142/39/17
f 142/39/17 140/51/17 138/40/17
f 141/37/18 142/41/18 144/43/18
f 143/42/19 144/43/19 134/48/19
f 143/47/20 133/52/20 135/45/20
f 135/45/20 137/53/20 139/46/20
f 139/46/20 141/54/20 143/47/20
f 146/29/13 148/32/13 147/30/13
f 148/32/14 150/34/14 149/33/14
f 150/34/15 152/36/15 151/35/15
f 151/35/16 152/36/16 154/41/16
f 150/40/17 148/49/17 146/38/17
f 146/38/17 156/50/17 154/39/17
f 154/39/17 152/51/17 150/40/17
f 153/37/18 154/41/18 156/43/18
f 155/42/19 156/43/19 146/48/19
f 155/47/20 145/52/20 147/45/20
f 147/45/20 149/53/20 151/46/20
f 151/46/20 153/54/20 155/47/20
o BenchPress_Plate
v 1.500000 4.120000 1.850000
v 1.500000 4.120000 1.990000
v 1.938406 3.938406 1.850000
v 1.938406 3.938406 1.990000
v 2.120000 3.500000 1.850000
v 2.120000 3.500000 1.990000
v 1.938406 3.061594 1.850000
v 1.938406 3.061594 1.990000
v 1.500000 2.880000 1.850000
v 1.500000 2.880000 1.990000
v 1.061594 3.061594 1.850000
v 1.061594 3.061594 1.990000
v 0.880000 3.500000 1.850000
v 0.880000 3.500000 1.990000
v 1.061594 3.938406 1.850000
v 1.061594 3.938406 1.990000
v 1.500000 4.120000 2.130000
v 1.938406 3.938406 2.130000
v 2.120000 3.500000 2.130000
v 1.938406 3.061594 2.130000
v 1.500000 2.880000 2.130000
v 1.061594 3.061594 2.130000
v 0.880000 3.500000 2.130000
v 1.061594 3.938406 2.130000
v 1.500000 4.120000 -1.990000
v 1.500000 4.120000 -1.850000
v 1.938406 3.938406 -1.990000
v 1.938406 3.938406 -1.850000
v 2.120000 3.500000 -1.990000
v 2.120000 3.500000 -1.850000
v 1.938406 3.061594 -1.990000
v 1.938406 3.061594 -1.850000
v 1.500000 2.880000 -1.990000
v 1.500000 2.880000 -1.850000
v 1.061594 3.061594 -1.990000
v 1.061594 3.061594 -1.850000
v 0.880000 3.500000 -1.990000
v 0.880000 3.500000 -1.850000
v 1.061594 3.938406 -1.990000
v 1.061594 3.938406 -1.850000
v 1.500000 4.120000 -2.130000
v 1.938406 3.938406 -2.130000
v 2.120000 3.500000 -2.130000
v 1.938406 3.061594 -2.130000
v 1.500000 2.880000 -2.130000
v 1.061594 3.061594 -2.130000
v 0.880000 3.500000 -2.130000
v 1.061594 3.938406 -2.130000
vn 0.3827 0.9239 -0.0000
vn 0.9239 0.3827 -0.0000
vn 0.9239 -0.3827 -0.0000
vn 0.3827 -0.9239 -0.0000
vn -0.3827 -0.9239 -0.0000
vn -0.9239 -0.3827 -0.0000
vn -0.9239 0.3827 -0.0000
vn -0.3827 0.9239 -0.0000
vn -0.0000 -0.0000 -1.0000
vn -0.0000 -0.0000 1.0000
vt 1.000000 1.000000
vt 0.875000 0.500000
vt 1.000000 0.500000
vt 0.875000 1.000000
vt 0.750000 0.500000
vt 0.750000 1.000000
vt 0.625000 0.500000
vt 0.625000 1.000000
vt 0.500000 0.500000
vt 0.500000 1.000000
vt 0.375000 0.500000
vt 0.375000 1.000000
vt 0.250000 0.500000
vt 0.250000 1.000000
vt 0.125000 0.500000
vt 0.125000 1.000000
vt 0.000000 0.500000
vt 0.919706 0.080294
vt 0.580294 0.080294
vt 0.580294 0.419706
vt 0.010000 0.250000
vt 0.250000 0.010000
vt 0.490000 0.250000
vt 0.000000 1.000000
vt 0.750000 0.490000
vt 0.919706 0.419706
vt 0.990000 0.250000
vt 0.750000 0.010000
vt 0.510000 0.250000
vt 0.419706 0.419706
vt 0.250000 0.490000
vt 0.080294 0.419706
vt 0.080294 0.080294
vt 0.419706 0.080294
s 0
usemtl BP_Plate
f 158/55/21 159/56/21 157/57/21
f 160/58/22 161/59/22 159/56/22
f 162/60/23 163/61/23 161/59/23
f 164/62/24 165/63/24 163/61/24
f 166/64/25 167/65/25 165/63/25
f 168/66/26 169/67/26 167/65/26
f 170/68/27 171/69/27 169/67/27
f 172/70/28 157/71/28 171/69/28
f 163/72/29 167/73/29 171/74/29
f 173/55/21 160/56/21 158/57/21
f 174/58/22 162/59/22 160/56/22
f 162/59/23 176/62/23 164/61/23
f 176/62/24 166/63/24 164/61/24
f 166/63/25 178/66/25 168/65/25
f 168/65/26 179/68/26 170/67/26
f 179/75/30 177/76/30 175/77/30
f 170/67/27 180/70/27 172/69/27
f 180/70/28 158/71/28 172/69/28
f 182/55/21 183/56/21 181/57/21
f 184/58/22 185/59/22 183/56/22
f 186/60/23 187/61/23 185/59/23
f 188/62/24 189/63/24 187/61/24
f 190/64/25 191/65/25 189/63/25
f 192/66/26 193/67/26 191/65/26
f 194/75/30 190/76/30 186/77/30
f 194/68/27 195/69/27 193/67/27
f 196/70/28 181/71/28 195/69/28
f 181/55/21 198/56/21 197/57/21
f 183/58/22 199/59/22 198/56/22
f 185/60/23 200/61/23 199/59/23
f 187/62/24 201/63/24 200/61/24
f 189/64/25 202/65/25 201/63/25
f 191/66/26 203/67/26 202/65/26
f 193/68/27 204/69/27 203/67/27
f 195/70/28 197/71/28 204/69/28
f 200/72/29 202/73/29 204/74/29
f 158/55/21 160/58/21 159/56/21
f 160/58/22 162/60/22 161/59/22
f 162/60/23 164/62/23 163/61/23
f 164/62/24 166/64/24 165/63/24
f 166/64/25 168/66/25 167/65/25
f 168/66/26 170/68/26 169/67/26
f 170/68/27 172/70/27 171/69/27
f 172/70/28 158/78/28 157/71/28
f 171/74/29 157/79/29 159/80/29
f 159/80/29 161/81/29 163/72/29
f 163/72/29 165/82/29 167/73/29
f 167/73/29 169/83/29 171/74/29
f 171/74/29 159/80/29 163/72/29
f 173/55/21 174/58/21 160/56/21
f 174/58/22 175/60/22 162/59/22
f 162/59/23 175/60/23 176/62/23
f 176/62/24 177/64/24 166/63/24
f 166/63/25 177/64/25 178/66/25
f 168/65/26 178/66/26 179/68/26
f 175/77/30 174/84/30 173/85/30
f 173/85/30 180/86/30 179/75/30
f 179/75/30 178/87/30 177/76/30
f 177/76/30 176/88/30 175/77/30
f 175/77/30 173/85/30 179/75/30
f 170/67/27 179/68/27 180/70/27
f 180/70/28 173/78/28 158/71/28
f 182/55/21 184/58/21 183/56/21
f 184/58/22 186/60/22 185/59/22
f 186/60/23 188/62/23 187/61/23
f 188/62/24 190/64/24 189/63/24
f 190/64/25 192/66/25 191/65/25
f 192/66/26 194/68/26 193/67/26
f 186/77/30 184/84/30 182/85/30
f 182/85/30 196/86/30 194/75/30
f 194/75/30 192/87/30 190/76/30
f 190/76/30 188/88/30 186/77/30
f 186/77/30 182/85/30 194/75/30
f 194/68/27 196/70/27 195/69/27
f 196/70/28 182/78/28 181/71/28
f 181/55/21 183/58/21 198/56/21
f 183/58/22 185/60/22 199/59/22
f 185/60/23 187/62/23 200/61/23
f 187/62/24 189/64/24 201/63/24
f 189/64/25 191/66/25 202/65/25
f 191/66/26 193/68/26 203/67/26
f 193/68/27 195/70/27 204/69/27
f 195/70/28 181/78/28 197/71/28
f 204/74/29 197/79/29 198/80/29
f 198/80/29 199/81/29 200/72/29
f 200/72/29 201/82/29 202/73/29
f 202/73/29 203/83/29 204/74/29
f 204/74/29 198/80/29 200/72/29
